<mxfile host="app.diagrams.net" agent="Mozilla/5.0 (Windows NT 10.0; Win64; x64) AppleWebKit/537.36 (KHTML, like Gecko) Chrome/128.0.0.0 Safari/537.36" version="24.7.14">
  <diagram name="Page-1" id="WFgAWnk0vSolG2h3N5dx">
    <mxGraphModel dx="1050" dy="557" grid="1" gridSize="10" guides="1" tooltips="1" connect="1" arrows="1" fold="1" page="1" pageScale="1" pageWidth="1169" pageHeight="827" math="0" shadow="0">
      <root>
        <mxCell id="0" />
        <mxCell id="1" parent="0" />
        <mxCell id="Wvlnfc6akxbK0Xw1W7D5-1" value="" style="swimlane;startSize=20;horizontal=1;containerType=tree;newEdgeStyle={&quot;edgeStyle&quot;:&quot;elbowEdgeStyle&quot;,&quot;startArrow&quot;:&quot;none&quot;,&quot;endArrow&quot;:&quot;none&quot;};" vertex="1" parent="1">
          <mxGeometry x="210" y="180" width="220" height="160" as="geometry" />
        </mxCell>
        <mxCell id="Wvlnfc6akxbK0Xw1W7D5-2" value="" style="edgeStyle=elbowEdgeStyle;elbow=vertical;sourcePerimeterSpacing=0;targetPerimeterSpacing=0;startArrow=none;endArrow=none;rounded=0;curved=0;" edge="1" parent="Wvlnfc6akxbK0Xw1W7D5-1" source="Wvlnfc6akxbK0Xw1W7D5-4" target="Wvlnfc6akxbK0Xw1W7D5-5">
          <mxGeometry relative="1" as="geometry" />
        </mxCell>
        <mxCell id="Wvlnfc6akxbK0Xw1W7D5-3" value="" style="edgeStyle=elbowEdgeStyle;elbow=vertical;sourcePerimeterSpacing=0;targetPerimeterSpacing=0;startArrow=none;endArrow=none;rounded=0;curved=0;" edge="1" parent="Wvlnfc6akxbK0Xw1W7D5-1" source="Wvlnfc6akxbK0Xw1W7D5-4" target="Wvlnfc6akxbK0Xw1W7D5-6">
          <mxGeometry relative="1" as="geometry" />
        </mxCell>
        <UserObject label="User Registration" treeRoot="1" id="Wvlnfc6akxbK0Xw1W7D5-4">
          <mxCell style="whiteSpace=wrap;html=1;align=center;treeFolding=1;treeMoving=1;newEdgeStyle={&quot;edgeStyle&quot;:&quot;elbowEdgeStyle&quot;,&quot;startArrow&quot;:&quot;none&quot;,&quot;endArrow&quot;:&quot;none&quot;};" vertex="1" parent="Wvlnfc6akxbK0Xw1W7D5-1">
            <mxGeometry x="60" y="30" width="100" height="40" as="geometry" />
          </mxCell>
        </UserObject>
        <mxCell id="Wvlnfc6akxbK0Xw1W7D5-5" value="Login" style="whiteSpace=wrap;html=1;align=center;verticalAlign=middle;treeFolding=1;treeMoving=1;newEdgeStyle={&quot;edgeStyle&quot;:&quot;elbowEdgeStyle&quot;,&quot;startArrow&quot;:&quot;none&quot;,&quot;endArrow&quot;:&quot;none&quot;};" vertex="1" parent="Wvlnfc6akxbK0Xw1W7D5-1">
          <mxGeometry x="30" y="90" width="70" height="40" as="geometry" />
        </mxCell>
        <mxCell id="Wvlnfc6akxbK0Xw1W7D5-6" value="Logout" style="whiteSpace=wrap;html=1;align=center;verticalAlign=middle;treeFolding=1;treeMoving=1;newEdgeStyle={&quot;edgeStyle&quot;:&quot;elbowEdgeStyle&quot;,&quot;startArrow&quot;:&quot;none&quot;,&quot;endArrow&quot;:&quot;none&quot;};" vertex="1" parent="Wvlnfc6akxbK0Xw1W7D5-1">
          <mxGeometry x="120" y="90" width="80" height="40" as="geometry" />
        </mxCell>
        <mxCell id="Wvlnfc6akxbK0Xw1W7D5-7" value="" style="edgeStyle=orthogonalEdgeStyle;html=1;endArrow=block;elbow=vertical;startArrow=none;endFill=1;strokeColor=#545B64;rounded=0;" edge="1" parent="1">
          <mxGeometry width="100" relative="1" as="geometry">
            <mxPoint x="110" y="269.5" as="sourcePoint" />
            <mxPoint x="210" y="269.5" as="targetPoint" />
          </mxGeometry>
        </mxCell>
        <mxCell id="Wvlnfc6akxbK0Xw1W7D5-8" value="Profile" style="ellipse;shape=cloud;whiteSpace=wrap;html=1;" vertex="1" parent="1">
          <mxGeometry y="230" width="120" height="80" as="geometry" />
        </mxCell>
        <mxCell id="Wvlnfc6akxbK0Xw1W7D5-10" value="" style="endArrow=classic;html=1;rounded=0;" edge="1" parent="1">
          <mxGeometry width="50" height="50" relative="1" as="geometry">
            <mxPoint x="430" y="260" as="sourcePoint" />
            <mxPoint x="480" y="295" as="targetPoint" />
          </mxGeometry>
        </mxCell>
        <mxCell id="Wvlnfc6akxbK0Xw1W7D5-12" value="" style="endArrow=classic;html=1;rounded=0;" edge="1" parent="1">
          <mxGeometry width="50" height="50" relative="1" as="geometry">
            <mxPoint x="430" y="245" as="sourcePoint" />
            <mxPoint x="490" y="210" as="targetPoint" />
          </mxGeometry>
        </mxCell>
        <mxCell id="Wvlnfc6akxbK0Xw1W7D5-13" value="Role-Based access Control" style="rounded=1;whiteSpace=wrap;html=1;" vertex="1" parent="1">
          <mxGeometry x="490" y="190" width="100" height="30" as="geometry" />
        </mxCell>
        <mxCell id="Wvlnfc6akxbK0Xw1W7D5-14" value="Two Face authentication" style="rounded=1;whiteSpace=wrap;html=1;" vertex="1" parent="1">
          <mxGeometry x="480" y="280" width="80" height="30" as="geometry" />
        </mxCell>
        <mxCell id="Wvlnfc6akxbK0Xw1W7D5-15" value="" style="edgeStyle=orthogonalEdgeStyle;html=1;endArrow=block;elbow=vertical;startArrow=none;endFill=1;strokeColor=#545B64;rounded=0;" edge="1" parent="1">
          <mxGeometry width="100" relative="1" as="geometry">
            <mxPoint x="590" y="204.5" as="sourcePoint" />
            <mxPoint x="660" y="205" as="targetPoint" />
          </mxGeometry>
        </mxCell>
        <mxCell id="Wvlnfc6akxbK0Xw1W7D5-19" value="" style="endArrow=classic;html=1;rounded=0;" edge="1" parent="1">
          <mxGeometry width="50" height="50" relative="1" as="geometry">
            <mxPoint x="810" y="190" as="sourcePoint" />
            <mxPoint x="870" y="160" as="targetPoint" />
          </mxGeometry>
        </mxCell>
        <mxCell id="Wvlnfc6akxbK0Xw1W7D5-20" value="" style="endArrow=classic;html=1;rounded=0;" edge="1" parent="1">
          <mxGeometry width="50" height="50" relative="1" as="geometry">
            <mxPoint x="800" y="290" as="sourcePoint" />
            <mxPoint x="850" y="320" as="targetPoint" />
          </mxGeometry>
        </mxCell>
        <mxCell id="Wvlnfc6akxbK0Xw1W7D5-23" value="Judge Dashboard" style="shape=process;whiteSpace=wrap;html=1;backgroundOutline=1;" vertex="1" parent="1">
          <mxGeometry x="850" y="310" width="100" height="40" as="geometry" />
        </mxCell>
        <mxCell id="Wvlnfc6akxbK0Xw1W7D5-35" value="" style="edgeStyle=orthogonalEdgeStyle;rounded=0;orthogonalLoop=1;jettySize=auto;html=1;" edge="1" parent="1" source="Wvlnfc6akxbK0Xw1W7D5-26" target="Wvlnfc6akxbK0Xw1W7D5-32">
          <mxGeometry relative="1" as="geometry" />
        </mxCell>
        <mxCell id="Wvlnfc6akxbK0Xw1W7D5-26" value="Lawyer Dashboard" style="shape=process;whiteSpace=wrap;html=1;backgroundOutline=1;" vertex="1" parent="1">
          <mxGeometry x="870" y="130" width="100" height="40" as="geometry" />
        </mxCell>
        <mxCell id="Wvlnfc6akxbK0Xw1W7D5-27" value="Citizen Dashboard" style="shape=process;whiteSpace=wrap;html=1;backgroundOutline=1;" vertex="1" parent="1">
          <mxGeometry x="890" y="220" width="100" height="35" as="geometry" />
        </mxCell>
        <mxCell id="Wvlnfc6akxbK0Xw1W7D5-37" value="" style="edgeStyle=orthogonalEdgeStyle;rounded=0;orthogonalLoop=1;jettySize=auto;html=1;" edge="1" parent="1" source="Wvlnfc6akxbK0Xw1W7D5-32" target="Wvlnfc6akxbK0Xw1W7D5-36">
          <mxGeometry relative="1" as="geometry">
            <Array as="points">
              <mxPoint x="1170" y="140" />
              <mxPoint x="1170" y="141" />
            </Array>
          </mxGeometry>
        </mxCell>
        <mxCell id="Wvlnfc6akxbK0Xw1W7D5-32" value="View Client Cases" style="shape=datastore;whiteSpace=wrap;html=1;" vertex="1" parent="1">
          <mxGeometry x="1060" y="120" width="70" height="60" as="geometry" />
        </mxCell>
        <mxCell id="Wvlnfc6akxbK0Xw1W7D5-33" value="" style="edgeStyle=orthogonalEdgeStyle;html=1;endArrow=block;elbow=vertical;startArrow=none;endFill=1;strokeColor=#545B64;rounded=0;" edge="1" parent="1" target="Wvlnfc6akxbK0Xw1W7D5-17">
          <mxGeometry width="100" relative="1" as="geometry">
            <mxPoint x="740" y="214.25" as="sourcePoint" />
            <mxPoint x="820" y="216" as="targetPoint" />
            <Array as="points" />
          </mxGeometry>
        </mxCell>
        <mxCell id="Wvlnfc6akxbK0Xw1W7D5-34" value="" style="edgeStyle=orthogonalEdgeStyle;rounded=0;orthogonalLoop=1;jettySize=auto;html=1;" edge="1" parent="1" source="Wvlnfc6akxbK0Xw1W7D5-17" target="Wvlnfc6akxbK0Xw1W7D5-27">
          <mxGeometry relative="1" as="geometry" />
        </mxCell>
        <mxCell id="Wvlnfc6akxbK0Xw1W7D5-17" value="User" style="whiteSpace=wrap;html=1;aspect=fixed;" vertex="1" parent="1">
          <mxGeometry x="660" y="170" width="150" height="150" as="geometry" />
        </mxCell>
        <mxCell id="Wvlnfc6akxbK0Xw1W7D5-36" value="" style="sketch=0;outlineConnect=0;fontColor=#232F3E;gradientColor=none;fillColor=#7AA116;strokeColor=none;dashed=0;verticalLabelPosition=bottom;verticalAlign=top;align=center;html=1;fontSize=12;fontStyle=0;aspect=fixed;pointerEvents=1;shape=mxgraph.aws4.backup_compliance_reporting;" vertex="1" parent="1">
          <mxGeometry x="1210" y="102" width="72.21" height="88" as="geometry" />
        </mxCell>
        <mxCell id="Wvlnfc6akxbK0Xw1W7D5-38" value="Submit Legal Document" style="whiteSpace=wrap;html=1;fillColor=#f5f5f5;fontColor=#333333;strokeColor=#666666;" vertex="1" parent="1">
          <mxGeometry x="1210" y="180" width="76" height="30" as="geometry" />
        </mxCell>
      </root>
    </mxGraphModel>
  </diagram>
</mxfile>
